#define bucket_width 64
#define bucket_height 64
static unsigned char bucket_bits[] = {
   0x00, 0x00, 0x00, 0x00, 0x00, 0x00, 0x00, 0x00, 0x00, 0x00, 0x00, 0x00,
   0x00, 0x00, 0x00, 0x00, 0x00, 0x00, 0x00, 0x00, 0x00, 0x00, 0x00, 0x00,
   0x00, 0x00, 0x00, 0x00, 0x1c, 0x00, 0x00, 0x00, 0x00, 0x00, 0x00, 0x00,
   0x14, 0x00, 0x00, 0x00, 0x00, 0x00, 0x00, 0x00, 0x14, 0x00, 0x00, 0x00,
   0x00, 0x00, 0x00, 0x00, 0x14, 0x00, 0x00, 0x00, 0x00, 0x00, 0x00, 0x00,
   0x14, 0x00, 0x00, 0x00, 0x00, 0x00, 0x00, 0x00, 0x14, 0x00, 0x00, 0x00,
   0x00, 0x00, 0x00, 0x00, 0x14, 0x00, 0x00, 0x00, 0x00, 0x00, 0x00, 0x00,
   0x14, 0x00, 0x00, 0x00, 0x00, 0x00, 0x00, 0x00, 0x14, 0x00, 0x00, 0x00,
   0x00, 0x00, 0x00, 0x00, 0x14, 0x00, 0x00, 0x00, 0x00, 0x00, 0x00, 0x00,
   0x14, 0x00, 0x00, 0x00, 0x00, 0x00, 0x00, 0xc0, 0x17, 0x00, 0x00, 0x00,
   0x00, 0x00, 0x00, 0xe0, 0x17, 0x00, 0x00, 0x00, 0x00, 0x00, 0x00, 0x30,
   0x14, 0x00, 0x00, 0x00, 0x00, 0x00, 0x00, 0x18, 0x34, 0x00, 0x00, 0x00,
   0x00, 0x00, 0x00, 0x0c, 0x74, 0x00, 0x00, 0x00, 0x00, 0x00, 0x00, 0x06,
   0xd4, 0x00, 0x00, 0x00, 0x00, 0x00, 0x00, 0x03, 0x94, 0x01, 0x00, 0x00,
   0x00, 0x00, 0x80, 0x01, 0x14, 0x03, 0x00, 0x00, 0x00, 0x00, 0xc0, 0x00,
   0x14, 0x06, 0x00, 0x00, 0x00, 0x00, 0x60, 0x00, 0x14, 0x1c, 0x00, 0x00,
   0x00, 0x00, 0x30, 0x00, 0x14, 0x78, 0x00, 0x00, 0x00, 0x00, 0x18, 0x00,
   0x14, 0xf0, 0x01, 0x00, 0x00, 0x00, 0x0c, 0x00, 0x14, 0xe0, 0x07, 0x00,
   0x00, 0x00, 0x06, 0x00, 0x14, 0xc0, 0x1f, 0x00, 0x00, 0x00, 0x03, 0x00,
   0x14, 0x80, 0x1f, 0x00, 0x00, 0x80, 0x01, 0x00, 0x14, 0x00, 0x3f, 0x00,
   0x00, 0xc0, 0x00, 0x00, 0x1c, 0x00, 0x3e, 0x00, 0x00, 0x60, 0x00, 0x00,
   0x00, 0x00, 0x3e, 0x00, 0x00, 0x30, 0x00, 0x00, 0x00, 0x00, 0x3e, 0x00,
   0x00, 0x18, 0x00, 0x00, 0x00, 0x00, 0x3e, 0x00, 0x00, 0x0c, 0x00, 0x00,
   0x00, 0x00, 0x3e, 0x00, 0x00, 0x06, 0x00, 0x00, 0x00, 0x00, 0x3f, 0x00,
   0x00, 0x03, 0x00, 0x00, 0x00, 0x80, 0x3d, 0x00, 0x00, 0x03, 0x00, 0x00,
   0x00, 0xc0, 0x3c, 0x00, 0x00, 0x03, 0x00, 0x00, 0x00, 0x60, 0x3c, 0x00,
   0x00, 0x03, 0x00, 0x00, 0x00, 0x30, 0x3c, 0x00, 0x00, 0x03, 0x00, 0x00,
   0x00, 0x18, 0x3c, 0x00, 0x00, 0x06, 0x00, 0x00, 0x00, 0x0c, 0x3c, 0x00,
   0x00, 0x0c, 0x00, 0x00, 0x00, 0x06, 0x3c, 0x00, 0x00, 0x18, 0x00, 0x00,
   0x00, 0x03, 0x3c, 0x00, 0x00, 0x30, 0x00, 0x00, 0x80, 0x01, 0x3c, 0x00,
   0x00, 0x60, 0x00, 0x00, 0xc0, 0x00, 0x3c, 0x00, 0x00, 0xc0, 0x00, 0x00,
   0x60, 0x00, 0x3c, 0x00, 0x00, 0x80, 0x01, 0x00, 0x30, 0x00, 0x3c, 0x00,
   0x00, 0x00, 0x03, 0x00, 0x18, 0x00, 0x3c, 0x00, 0x00, 0x00, 0x06, 0x00,
   0x0c, 0x00, 0x3c, 0x00, 0x00, 0x00, 0x0c, 0x00, 0x06, 0x00, 0x3c, 0x00,
   0x00, 0x00, 0x18, 0x00, 0x03, 0x00, 0x3c, 0x00, 0x00, 0x00, 0x30, 0x80,
   0x01, 0x00, 0x3c, 0x00, 0x00, 0x00, 0x60, 0xc0, 0x00, 0x00, 0x3c, 0x00,
   0x00, 0x00, 0xc0, 0x60, 0x00, 0x00, 0x3c, 0x00, 0x00, 0x00, 0x80, 0x3f,
   0x00, 0x00, 0x3c, 0x00, 0x00, 0x00, 0x00, 0x1f, 0x00, 0x00, 0x3c, 0x00,
   0x00, 0x00, 0x00, 0x00, 0x00, 0x00, 0x3c, 0x00, 0x00, 0x00, 0x00, 0x00,
   0x00, 0x00, 0x3c, 0x00, 0x00, 0x00, 0x00, 0x00, 0x00, 0x00, 0x1c, 0x00,
   0x00, 0x00, 0x00, 0x00, 0x00, 0x00, 0x0c, 0x00, 0x00, 0x00, 0x00, 0x00,
   0x00, 0x00, 0x04, 0x00, 0x00, 0x00, 0x00, 0x00, 0x00, 0x00, 0x00, 0x00,
   0x00, 0x00, 0x00, 0x00, 0x00, 0x00, 0x00, 0x00 };
