#define eraser_width 64
#define eraser_height 64
static unsigned char eraser_bits[] = {
   0x00, 0x00, 0x00, 0x00, 0x00, 0x00, 0x00, 0x00, 0x00, 0x00, 0x00, 0x00,
   0x00, 0x00, 0x00, 0x00, 0x00, 0x00, 0x00, 0x00, 0x00, 0x00, 0x00, 0x00,
   0x00, 0x00, 0x00, 0x00, 0x00, 0x00, 0x00, 0x00, 0x00, 0x00, 0x00, 0x00,
   0x00, 0x00, 0x00, 0x00, 0x00, 0x00, 0x00, 0x00, 0x00, 0x00, 0x00, 0x00,
   0x00, 0x00, 0x00, 0x00, 0x00, 0x00, 0x00, 0x00, 0x00, 0x80, 0x3f, 0x00,
   0x00, 0x00, 0x00, 0x00, 0x00, 0xc0, 0x7f, 0x00, 0x00, 0x00, 0x00, 0x00,
   0x00, 0xe0, 0xe0, 0x00, 0x00, 0x00, 0x00, 0x00, 0x00, 0x70, 0xc0, 0x01,
   0x00, 0x00, 0x00, 0x00, 0x00, 0x38, 0x80, 0x03, 0x00, 0x00, 0x00, 0x00,
   0x00, 0x1c, 0x00, 0x07, 0x00, 0x00, 0x00, 0x00, 0x00, 0x0e, 0x00, 0x0e,
   0x00, 0x00, 0x00, 0x00, 0x00, 0x07, 0x00, 0x1c, 0x00, 0x00, 0x00, 0x00,
   0x80, 0x03, 0x00, 0x38, 0x00, 0x00, 0x00, 0x00, 0x80, 0x01, 0x00, 0x70,
   0x00, 0x00, 0x00, 0x00, 0x80, 0x01, 0x00, 0xe0, 0x00, 0x00, 0x00, 0x00,
   0x80, 0x01, 0x00, 0xc0, 0x01, 0x00, 0x00, 0x00, 0x80, 0x01, 0x00, 0x80,
   0x03, 0x00, 0x00, 0x00, 0x80, 0x01, 0x00, 0x00, 0x07, 0x00, 0x00, 0x00,
   0x80, 0x03, 0x00, 0x00, 0x0e, 0x00, 0x00, 0x00, 0x00, 0x07, 0x00, 0x00,
   0x1c, 0x00, 0x00, 0x00, 0x00, 0x0e, 0x00, 0x00, 0x38, 0x00, 0x00, 0x00,
   0x00, 0x1c, 0x00, 0x00, 0x70, 0x00, 0x00, 0x00, 0x00, 0x38, 0x00, 0x00,
   0xe0, 0x00, 0x00, 0x00, 0x00, 0x70, 0x00, 0x00, 0xc0, 0x01, 0x00, 0x00,
   0x00, 0xe0, 0x00, 0x00, 0x80, 0x03, 0x00, 0x00, 0x00, 0xc0, 0x01, 0x00,
   0x00, 0x07, 0x00, 0x00, 0x00, 0x80, 0x03, 0x00, 0x00, 0x0e, 0x00, 0x00,
   0x00, 0x00, 0x07, 0x00, 0x00, 0x1c, 0x00, 0x00, 0x00, 0x00, 0x0e, 0x00,
   0x00, 0x1c, 0x00, 0x00, 0x00, 0x00, 0x1c, 0x00, 0x00, 0x36, 0x00, 0x00,
   0x00, 0x00, 0x38, 0x00, 0x00, 0x63, 0x00, 0x00, 0x00, 0x00, 0x70, 0x00,
   0x80, 0xc1, 0x00, 0x00, 0x00, 0x00, 0xe0, 0x00, 0xc0, 0x80, 0x01, 0x00,
   0x00, 0x00, 0xc0, 0x01, 0x60, 0x00, 0x03, 0x00, 0x00, 0x00, 0x80, 0x03,
   0x30, 0x00, 0x06, 0x00, 0x00, 0x00, 0x00, 0x07, 0x18, 0x00, 0x0c, 0x00,
   0x00, 0x00, 0x00, 0x0e, 0x0c, 0x00, 0x18, 0x00, 0x00, 0x00, 0x00, 0x1c,
   0x06, 0x00, 0x30, 0x00, 0x00, 0x00, 0x00, 0x38, 0x03, 0x00, 0x60, 0x00,
   0x00, 0x00, 0x00, 0xf0, 0x01, 0x00, 0xc0, 0x00, 0x00, 0x00, 0x00, 0xe0,
   0x00, 0x00, 0x80, 0x01, 0x00, 0x00, 0x00, 0xc0, 0x01, 0x00, 0x80, 0x01,
   0x00, 0x00, 0x00, 0x00, 0x03, 0x00, 0x80, 0x01, 0x00, 0x00, 0x00, 0x00,
   0x06, 0x00, 0x80, 0x01, 0x00, 0x00, 0x00, 0x00, 0x0c, 0x00, 0x80, 0x01,
   0x00, 0x00, 0x00, 0x00, 0x18, 0x00, 0x80, 0x01, 0x00, 0x00, 0x00, 0x00,
   0x30, 0x00, 0xc0, 0x00, 0x00, 0x00, 0x00, 0x00, 0x60, 0x00, 0x60, 0x00,
   0xff, 0xff, 0xff, 0xff, 0xc7, 0xff, 0x3f, 0xfc, 0xff, 0xff, 0xff, 0xff,
   0x07, 0x00, 0x00, 0xfc, 0x00, 0x00, 0x00, 0x00, 0x00, 0x00, 0x00, 0x00,
   0x00, 0x00, 0x00, 0x00, 0x00, 0x00, 0x00, 0x00, 0x00, 0x00, 0x00, 0x00,
   0x00, 0x00, 0x00, 0x00, 0x00, 0x00, 0x00, 0x00, 0x00, 0x00, 0x00, 0x00,
   0x00, 0x00, 0x00, 0x00, 0x00, 0x00, 0x00, 0x00, 0x00, 0x00, 0x00, 0x00,
   0x00, 0x00, 0x00, 0x00, 0x00, 0x00, 0x00, 0x00, 0x00, 0x00, 0x00, 0x00,
   0x00, 0x00, 0x00, 0x00, 0x00, 0x00, 0x00, 0x00, 0x00, 0x00, 0x00, 0x00,
   0x00, 0x00, 0x00, 0x00, 0x00, 0x00, 0x00, 0x00, 0x00, 0x00, 0x00, 0x00,
   0x00, 0x00, 0x00, 0x00, 0x00, 0x00, 0x00, 0x00 };
